<?xml version="1.0" encoding="utf-8"?>
<!-- Generator: Adobe Illustrator 28.3.0, SVG Export Plug-In . SVG Version: 6.00 Build 0)  -->
<svg version="1.1" id="Layer_2" xmlns="http://www.w3.org/2000/svg" xmlns:xlink="http://www.w3.org/1999/xlink" x="0px" y="0px"
	 viewBox="0 0 967.3654175 216" style="enable-background:new 0 0 967.3654175 216;" xml:space="preserve">
<style type="text/css">
	.st0{fill:#00A19B;}
</style>
<g>
	<path class="st0" d="M41.5785828,216h166.3143311l41.5786438-72l-41.5785828-72.000061L249.4714966,0h-83.1571655v0.000061
		L124.7357483,72l41.5785828,72H83.1571655l41.5785828-72L83.1571655,0H0l41.5785828,72L0,144L41.5785828,216z M132.8205261,72
		l33.493866-58l75.072464,130l-33.4939423,58L132.8205261,72z M45.6208763,65L12.1270618,7h66.9877548l-3.6406555,6.3043213
		L45.6208763,65z"/>
</g>
<g>
	<path class="st0" d="M448.871521,72.6102295l-24.7431641,57.250061v-0.2861938h-29.1894531V72.6102295h-15.6542969h-0.1015625
		h-56.4580078v13.9375h20.4023438v57.5703125h15.7558594V86.5477295h20.2998047v57.5703125h38.7832031h6.1621094h11.2099609
		l5.9589844-15.1503906h27.7744141l6.1611328,15.1503906h17.7763672l-31.1083984-71.5078125H448.871521z M446.2455444,115.6356201
		l8.6865234-22.2197266l8.7871094,22.2197266H446.2455444z"/>
	<path class="st0" d="M551.0824585,116.2420654h12.8271484v11.6152344c-1.4824219,0.8076172-3.46875,1.5996094-5.9589844,2.3730469
		c-2.4921875,0.7753906-5.4541016,1.1621094-8.8886719,1.1621094c-3.3671875,0-6.4130859-0.5712891-9.1396484-1.7177734
		c-2.7275391-1.1435547-5.0673828-2.7421875-7.0195312-4.796875c-1.9541016-2.0537109-3.4521484-4.4775391-4.4951172-7.2724609
		c-1.0449219-2.7929688-1.5654297-5.8740234-1.5654297-9.2412109c0-3.2988281,0.5205078-6.3632812,1.5654297-9.1914062
		c1.0429688-2.828125,2.5410156-5.2675781,4.4951172-7.3222656c1.9521484-2.0527344,4.2919922-3.6513672,7.0195312-4.7978516
		c2.7265625-1.1435547,5.7724609-1.7167969,9.1396484-1.7167969c4.0400391,0,7.40625,0.5732422,10.1005859,1.7167969
		c2.6923828,1.1464844,5.1162109,2.828125,7.2714844,5.0507812l11.1103516-12.1201172
		c-3.6357422-3.3662109-7.8623047-5.7402344-12.6757812-7.1210938c-4.8144531-1.3789062-10.0839844-2.0703125-15.8066406-2.0703125
		c-5.5888672,0-10.7402344,0.8759766-15.4521484,2.6259766c-4.7138672,1.7519531-8.7871094,4.2597656-12.2216797,7.5244141
		c-3.4335938,3.2666016-6.1103516,7.2216797-8.0292969,11.8681641c-1.9189453,4.6455078-2.8789062,9.8310547-2.8789062,15.5537109
		c0,5.7236328,0.9599609,10.9082031,2.8789062,15.5537109c1.9189453,4.6464844,4.5957031,8.6025391,8.0292969,11.8681641
		c3.4345703,3.2666016,7.5078125,5.7734375,12.2216797,7.5244141c4.7119141,1.75,9.8632812,2.6259766,15.4521484,2.6259766
		c5.2519531,0,10.4033203-0.5400391,15.453125-1.6162109s9.8984375-2.828125,14.5439453-5.2519531v-37.3701172h-27.9765625
		V116.2420654z"/>
	<path class="st0" d="M752.2230835,77.1043701c-2.4589844-1.6494141-5.3369141-2.8105469-8.6357422-3.484375
		c-3.2998047-0.671875-6.8017578-1.0097656-10.5039062-1.0097656h-26.5625v66.8633423l-29.0878906-66.8633423h-13.0292969
		l-27.4865112,63.5975952l-13.4177856-22.2890015c5.0498047-0.9423828,8.8876953-3.1816406,11.5136719-6.7158203
		c2.6259766-3.5351562,3.9394531-7.828125,3.9394531-12.8779297c0-4.1738281-0.7246094-7.6582031-2.171875-10.453125
		c-1.4482422-2.7939453-3.4003906-5.015625-5.8574219-6.6660156c-2.4589844-1.6494141-5.3203125-2.828125-8.5849609-3.5351562
		c-3.2666016-0.7070312-6.7167969-1.0605469-10.3525391-1.0605469h-27.6738281v71.5078125h15.7558594v-28.5830078h7.7763672
		l14.9482422,28.5830078h10.7060547h8.1806641h9.1914062l5.9589844-15.1503906h27.7744141l6.1611328,15.1503906h15.7558594
		h2.0205078h13.7353516v-27.8759766h11.5136719c3.7705078,0,7.2724609-0.3535156,10.5039062-1.0605469
		c3.2324219-0.7070312,6.0253906-1.9013672,8.3828125-3.5859375c2.3564453-1.6816406,4.2080078-3.9384766,5.5556641-6.7666016
		c1.3457031-2.828125,2.0195312-6.328125,2.0195312-10.5039062c0-4.2421875-0.7246094-7.7597656-2.171875-10.5546875
		C756.6322632,80.977417,754.6801147,78.7557373,752.2230835,77.1043701z M621.3275757,98.7694092
		c-0.8427734,1.0771484-1.9023438,1.8681641-3.1806641,2.3730469c-1.2802734,0.5048828-2.7119141,0.8076172-4.2929688,0.9091797
		c-1.5830078,0.1005859-3.0800781,0.1513672-4.4941406,0.1513672h-9.2919922V85.9422607h10.3017578
		c1.4140625,0,2.8613281,0.1005859,4.3427734,0.3027344c1.4804688,0.2021484,2.7929688,0.5898438,3.9394531,1.1611328
		c1.1435547,0.5732422,2.0859375,1.3984375,2.828125,2.4746094c0.7392578,1.078125,1.1103516,2.5253906,1.1103516,4.34375
		C622.590271,96.1776123,622.1693726,97.6932373,621.3275757,98.7694092z M661.777771,115.6356201l8.6865234-22.2197266
		l8.7871094,22.2197266H661.777771z M742.9310913,98.5164795c-0.640625,1.1113281-1.4824219,1.9873047-2.5253906,2.6259766
		c-1.0449219,0.640625-2.2216797,1.0957031-3.5351562,1.3632812c-1.3125,0.2705078-2.6757812,0.4042969-4.0898438,0.4042969
		h-10.5039062V85.9422607h8.0800781c1.4794922,0,3.0292969,0.0849609,4.6455078,0.2519531
		c1.6162109,0.1689453,3.0810547,0.5556641,4.3935547,1.1621094c1.3134766,0.6054688,2.3896484,1.4638672,3.2324219,2.5751953
		c0.8408203,1.1113281,1.2617188,2.5751953,1.2617188,4.3935547
		C743.8900757,96.008667,743.5697632,97.4051514,742.9310913,98.5164795z"/>
	<polygon class="st0" points="809.8422241,99.274292 779.2396851,99.274292 779.2396851,72.6102295 763.4838257,72.6102295 
		763.4838257,144.118042 779.2396851,144.118042 779.2396851,113.211792 809.8422241,113.211792 809.8422241,144.118042 
		825.5980835,144.118042 825.5980835,72.6102295 809.8422241,72.6102295 	"/>
	<rect x="830.8500366" y="72.6102295" class="st0" width="15.7558594" height="71.5078125"/>
	<path class="st0" d="M961.2396851,112.4041748c-1.6162109-2.4902344-3.6533203-4.4775391-6.1113281-5.9589844
		c-2.4580078-1.4804688-5.1005859-2.6259766-7.9277344-3.4345703c-2.828125-0.8076172-5.4716797-1.6152344-7.9287109-2.4238281
		c-2.4589844-0.8076172-4.4951172-1.7832031-6.1103516-2.9287109c-1.6162109-1.1445312-2.4248047-2.7929688-2.4248047-4.9492188
		c0-1.3457031,0.3369141-2.4902344,1.0107422-3.4335938c0.671875-0.9423828,1.5478516-1.7001953,2.6259766-2.2724609
		c1.0761719-0.5712891,2.2216797-0.9931641,3.4335938-1.2626953c1.2119141-0.2685547,2.3896484-0.4042969,3.5351562-0.4042969
		c1.9521484,0,4.0224609,0.3886719,6.2119141,1.1621094c2.1865234,0.7744141,3.9208984,1.96875,5.2011719,3.5849609
		l10.8066406-11.8164062c-3.0292969-2.6923828-6.4306641-4.6113281-10.2011719-5.7578125
		c-3.7714844-1.1435547-7.6757812-1.7167969-11.7158203-1.7167969c-3.5019531,0-6.9023438,0.4892578-10.2011719,1.4648438
		c-3.2998047,0.9765625-6.2109375,2.4414062-8.7363281,4.3935547c-2.5244141,1.953125-4.5449219,4.3779297-6.0595703,7.2714844
		c-1.515625,2.8964844-2.2724609,6.2626953-2.2724609,10.1005859c0,3.9736328,0.8232422,7.1708984,2.4746094,9.5947266
		c1.6484375,2.4238281,3.7197266,4.3779297,6.2109375,5.8583984c2.4902344,1.4814453,5.1845703,2.6601562,8.0800781,3.5341797
		c2.8945312,0.8759766,5.5878906,1.7519531,8.0800781,2.6259766c2.4902344,0.8759766,4.5605469,1.9365234,6.2119141,3.1816406
		c1.6484375,1.2470703,2.4746094,2.9462891,2.4746094,5.1005859c0,1.2802734-0.3203125,2.390625-0.9599609,3.3330078
		c-0.640625,0.9443359-1.4814453,1.7167969-2.5253906,2.3232422c-1.0439453,0.6054688-2.2216797,1.0605469-3.5341797,1.3632812
		c-1.3134766,0.3027344-2.6103516,0.4550781-3.8886719,0.4550781c-2.6259766,0-5.1689453-0.5888672-7.6259766-1.7675781
		c-2.4580078-1.1777344-4.4941406-2.84375-6.1103516-5l-9.302002,10.2241211
		c0.3479004-0.4343872,0.6907959-0.8758545,1.0197754-1.3364258l-13.1298828-9.796875
		c-1.6162109,2.4248047-3.6708984,4.3105469-6.1611328,5.65625c-2.4921875,1.3476562-5.3535156,2.0205078-8.5849609,2.0205078
		c-2.828125,0-5.4716797-0.5712891-7.9287109-1.7177734c-2.4589844-1.1435547-4.5957031-2.7421875-6.4130859-4.796875
		c-1.8183594-2.0537109-3.25-4.4775391-4.2929688-7.2724609c-1.0449219-2.7929688-1.5654297-5.8740234-1.5654297-9.2412109
		c0-3.2988281,0.5205078-6.3632812,1.5654297-9.1914062c1.0429688-2.828125,2.4902344-5.2675781,4.3427734-7.3222656
		c1.8515625-2.0527344,4.0400391-3.6513672,6.5654297-4.7978516c2.5253906-1.1435547,5.2675781-1.7167969,8.2314453-1.7167969
		c2.9619141,0,5.5712891,0.5048828,7.8271484,1.515625c2.2558594,1.0097656,4.1572266,2.4580078,5.7070312,4.3427734
		l12.1201172-9.8984375c-1.5498047-1.9521484-3.2998047-3.6005859-5.2519531-4.9492188
		c-1.9541016-1.3457031-3.9902344-2.4238281-6.1103516-3.2314453c-2.1210938-0.8076172-4.2773438-1.3964844-6.4648438-1.7675781
		c-2.1884766-0.3691406-4.2919922-0.5556641-6.3125-0.5556641c-5.5888672,0-10.7402344,0.8759766-15.4521484,2.6259766
		c-4.7138672,1.7519531-8.7871094,4.2597656-12.2216797,7.5244141c-3.4335938,3.2666016-6.1103516,7.2216797-8.0292969,11.8681641
		c-1.9189453,4.6455078-2.8789062,9.8310547-2.8789062,15.5537109c0,5.7236328,0.9599609,10.9082031,2.8789062,15.5537109
		c1.9189453,4.6464844,4.5957031,8.6025391,8.0292969,11.8681641c3.4345703,3.2666016,7.5078125,5.7734375,12.2216797,7.5244141
		c4.7119141,1.75,9.8632812,2.6259766,15.4521484,2.6259766c4.9150391,0,9.6962891-1.0107422,14.3427734-3.0302734
		c3.2735596-1.4238281,6.1373291-3.4110718,8.6088867-5.9379272c3.427002,3.1547241,7.1219482,5.4362793,11.0864258,6.8471069
		c3.9716797,1.4140625,8.28125,2.1210938,12.9277344,2.1210938c3.7021484,0,7.2216797-0.4726562,10.5546875-1.4140625
		c3.3330078-0.9423828,6.2617188-2.3896484,8.7871094-4.34375c2.5244141-1.9521484,4.5273438-4.4091797,6.0087891-7.3720703
		c1.4804688-2.9628906,2.2226562-6.4296875,2.2226562-10.4033203
		C963.6635132,118.2293701,962.8549194,114.8963623,961.2396851,112.4041748z"/>
</g>
</svg>
