<?xml version="1.0" encoding="iso-8859-1"?>
<!-- Generator: Adobe Illustrator 29.6.1, SVG Export Plug-In . SVG Version: 9.03 Build 0)  -->
<svg version="1.1" id="Layer_1" xmlns="http://www.w3.org/2000/svg" xmlns:xlink="http://www.w3.org/1999/xlink" x="0px" y="0px"
	 viewBox="0 0 350 350" style="enable-background:new 0 0 350 350;" xml:space="preserve">
<path style="fill:#00A19B;stroke:#FFFFFF;stroke-miterlimit:10;" d="M300,350H50c-27.6,0-50-22.4-50-50V50C0,22.4,22.4,0,50,0h250
	c27.6,0,50,22.4,50,50v250C350,327.6,327.6,350,300,350z"/>
<path style="fill:#FFFFFF;" d="M83.5,293.8h182.9l45.7-79.2l-45.7-79.2l45.7-79.2h-91.5L175,135.4l45.7,79.2h-91.5l45.7-79.2
	l-45.7-79.2H37.8l45.7,79.2l-45.7,79.2L83.5,293.8z M183.9,135.4l36.8-63.8l82.6,143l-36.8,63.8L183.9,135.4z M88,127.7L51.2,63.9
	h73.7l-4,6.9L88,127.7z"/>
</svg>
