<svg xmlns="http://www.w3.org/2000/svg" xml:space="preserve" style="enable-background:new 0 0 350 350" viewBox="0 0 350 350"><path d="M300 350H50c-27.6 0-50-22.4-50-50V50C0 22.4 22.4 0 50 0h250c27.6 0 50 22.4 50 50v250c0 27.6-22.4 50-50 50z" style="fill:#fff;stroke:#fff;stroke-miterlimit:10"/><path d="M83.5 293.8h182.9l45.7-79.2-45.7-79.2 45.7-79.2h-91.5L175 135.4l45.7 79.2h-91.5l45.7-79.2-45.7-79.2H37.8l45.7 79.2-45.7 79.2 45.7 79.2zm100.4-158.4 36.8-63.8 82.6 143-36.8 63.8-82.6-143zM88 127.7 51.2 63.9h73.7l-4 6.9L88 127.7z" style="fill:#00a19b"/></svg>